<svg width="200" height="233" viewBox="0 0 200 233" fill="none" xmlns="http://www.w3.org/2000/svg">
<g clip-path="url(#clip0_1_422)">
<path d="M29.0132 171.438C29.1762 170.508 29.63 169.683 30.2866 169.121C30.9432 168.559 31.7557 168.3 32.5668 168.396C33.3778 168.491 34.1296 168.933 34.6763 169.637C35.223 170.34 35.5256 171.255 35.5256 172.203C35.5256 173.151 35.223 174.066 34.6763 174.769C34.1296 175.473 33.3778 175.915 32.5668 176.01C31.7557 176.106 30.9432 175.847 30.2866 175.285C29.63 174.723 29.1762 173.897 29.0132 172.968H0V171.438H29.0132ZM134.276 208.174C134.439 207.245 134.893 206.419 135.55 205.857C136.206 205.295 137.019 205.037 137.83 205.132C138.641 205.228 139.393 205.67 139.939 206.373C140.486 207.077 140.789 207.991 140.789 208.94C140.789 209.888 140.486 210.802 139.939 211.506C139.393 212.209 138.641 212.652 137.83 212.747C137.019 212.842 136.206 212.584 135.55 212.022C134.893 211.46 134.439 210.634 134.276 209.705H53.9474V208.174H134.276ZM172.303 172.968C172.14 173.897 171.686 174.723 171.029 175.285C170.373 175.847 169.56 176.106 168.749 176.01C167.938 175.915 167.186 175.473 166.64 174.769C166.093 174.066 165.79 173.151 165.79 172.203C165.79 171.255 166.093 170.34 166.64 169.637C167.186 168.933 167.938 168.491 168.749 168.396C169.56 168.3 170.373 168.559 171.029 169.121C171.686 169.683 172.14 170.508 172.303 171.438H200V172.968H172.303ZM172.303 185.214C172.14 186.143 171.686 186.969 171.029 187.531C170.373 188.093 169.56 188.351 168.749 188.256C167.938 188.161 167.186 187.718 166.64 187.015C166.093 186.311 165.79 185.397 165.79 184.449C165.79 183.5 166.093 182.586 166.64 181.882C167.186 181.179 167.938 180.736 168.749 180.641C169.56 180.546 170.373 180.804 171.029 181.366C171.686 181.928 172.14 182.754 172.303 183.683H200V185.214H172.303ZM176.382 97.9643C176.545 97.0352 176.998 96.2095 177.655 95.6475C178.312 95.0854 179.124 94.827 179.935 94.9223C180.746 95.0177 181.498 95.4599 182.045 96.1634C182.591 96.8668 182.894 97.7814 182.894 98.7297C182.894 99.678 182.591 100.593 182.045 101.296C181.498 101.999 180.746 102.442 179.935 102.537C179.124 102.632 178.312 102.374 177.655 101.812C176.998 101.25 176.545 100.424 176.382 99.495H119.671C119.508 100.424 119.054 101.25 118.398 101.812C117.741 102.374 116.928 102.632 116.117 102.537C115.306 102.442 114.555 101.999 114.008 101.296C113.461 100.593 113.159 99.678 113.159 98.7297C113.159 97.7814 113.461 96.8668 114.008 96.1634C114.555 95.4599 115.306 95.0177 116.117 94.9223C116.928 94.827 117.741 95.0854 118.398 95.6475C119.054 96.2095 119.508 97.0352 119.671 97.9643H176.382ZM7.96053 61.2277C8.12356 60.2986 8.57736 59.4729 9.23394 58.9109C9.89052 58.3488 10.7031 58.0904 11.5142 58.1857C12.3252 58.281 13.077 58.7233 13.6236 59.4267C14.1703 60.1302 14.473 61.0447 14.473 61.9931C14.473 62.9414 14.1703 63.8559 13.6236 64.5594C13.077 65.2628 12.3252 65.7051 11.5142 65.8004C10.7031 65.8957 9.89052 65.6373 9.23394 65.0753C8.57736 64.5132 8.12356 63.6876 7.96053 62.7584H0V61.2277H7.96053ZM130.197 87.2495C130.034 88.1787 129.581 89.0043 128.924 89.5664C128.267 90.1284 127.455 90.3868 126.644 90.2915C125.833 90.1962 125.081 89.7539 124.534 89.0505C123.988 88.347 123.685 87.4325 123.685 86.4842C123.685 85.5358 123.988 84.6213 124.534 83.9178C125.081 83.2144 125.833 82.7721 126.644 82.6768C127.455 82.5815 128.267 82.8399 128.924 83.4019C129.581 83.964 130.034 84.7896 130.197 85.7188H186.908C187.071 84.7896 187.525 83.964 188.181 83.4019C188.838 82.8399 189.65 82.5815 190.462 82.6768C191.273 82.7721 192.024 83.2144 192.571 83.9178C193.118 84.6213 193.42 85.5358 193.42 86.4842C193.42 87.4325 193.118 88.347 192.571 89.0505C192.024 89.7539 191.273 90.1962 190.462 90.2915C189.65 90.3868 188.838 90.1284 188.181 89.5664C187.525 89.0043 187.071 88.1787 186.908 87.2495H130.197ZM169.737 9.26069C170.536 9.45036 171.245 9.97827 171.728 10.7421C172.212 11.5059 172.434 12.4512 172.352 13.3947C172.27 14.3383 171.89 15.2128 171.285 15.8487C170.68 16.4847 169.894 16.8368 169.079 16.8368C168.264 16.8368 167.478 16.4847 166.873 15.8487C166.268 15.2128 165.888 14.3383 165.806 13.3947C165.724 12.4512 165.946 11.5059 166.429 10.7421C166.913 9.97827 167.622 9.45036 168.421 9.26069V0H169.737V9.26069ZM127.632 168.453C128.43 168.642 129.14 169.17 129.623 169.934C130.106 170.698 130.328 171.643 130.247 172.587C130.165 173.53 129.784 174.405 129.18 175.041C128.575 175.677 127.789 176.029 126.974 176.029C126.159 176.029 125.372 175.677 124.768 175.041C124.163 174.405 123.783 173.53 123.701 172.587C123.619 171.643 123.841 170.698 124.324 169.934C124.807 169.17 125.517 168.642 126.316 168.453V126.971C125.517 126.781 124.807 126.253 124.324 125.49C123.841 124.726 123.619 123.78 123.701 122.837C123.783 121.893 124.163 121.019 124.768 120.383C125.372 119.747 126.159 119.395 126.974 119.395C127.789 119.395 128.575 119.747 129.18 120.383C129.784 121.019 130.165 121.893 130.247 122.837C130.328 123.78 130.106 124.726 129.623 125.49C129.14 126.253 128.43 126.781 127.632 126.971V168.453ZM159.211 16.7611V61.2277H200V62.7584H157.895V16.7611C157.096 16.5714 156.386 16.0435 155.903 15.2797C155.42 14.5159 155.198 13.5706 155.28 12.6271C155.362 11.6835 155.742 10.809 156.347 10.173C156.951 9.53706 157.737 9.18494 158.553 9.18494C159.368 9.18494 160.154 9.53706 160.759 10.173C161.363 10.809 161.744 11.6835 161.825 12.6271C161.907 13.5706 161.685 14.5159 161.202 15.2797C160.719 16.0435 160.009 16.5714 159.211 16.7611ZM169.737 29.0066V48.9822H200V50.5129H168.421V29.0066C167.622 28.817 166.913 28.2891 166.429 27.5252C165.946 26.7614 165.724 25.8161 165.806 24.8726C165.888 23.9291 166.268 23.0546 166.873 22.4186C167.478 21.7826 168.264 21.4305 169.079 21.4305C169.894 21.4305 170.68 21.7826 171.285 22.4186C171.89 23.0546 172.27 23.9291 172.352 24.8726C172.434 25.8161 172.212 26.7614 171.728 27.5252C171.245 28.2891 170.536 28.817 169.737 29.0066ZM85.5263 102.48V159.192H96.0526V168.453C96.8513 168.642 97.5611 169.17 98.0442 169.934C98.5273 170.698 98.7495 171.643 98.6676 172.587C98.5856 173.53 98.2055 174.405 97.6008 175.041C96.9961 175.677 96.2099 176.029 95.3947 176.029C94.5796 176.029 93.7934 175.677 93.1887 175.041C92.584 174.405 92.2038 173.53 92.1219 172.587C92.04 171.643 92.2621 170.698 92.7453 169.934C93.2284 169.17 93.9381 168.642 94.7368 168.453V160.723H84.2105V102.48C83.4118 102.29 82.7021 101.762 82.2189 100.998C81.7358 100.235 81.5137 99.2894 81.5956 98.3459C81.6775 97.4023 82.0577 96.5278 82.6624 95.8918C83.2671 95.2559 84.0532 94.9037 84.8684 94.9037C85.6836 94.9037 86.4697 95.2559 87.0744 95.8918C87.6791 96.5278 88.0593 97.4023 88.1412 98.3459C88.2232 99.2894 88.001 100.235 87.5179 100.998C87.0347 101.762 86.325 102.29 85.5263 102.48ZM81.6447 85.7188C81.8078 84.7896 82.2616 83.964 82.9182 83.4019C83.5747 82.8399 84.3873 82.5815 85.1984 82.6768C86.0094 82.7721 86.7612 83.2144 87.3078 83.9178C87.8545 84.6213 88.1572 85.5358 88.1572 86.4842C88.1572 87.4325 87.8545 88.347 87.3078 89.0505C86.7612 89.7539 86.0094 90.1962 85.1984 90.2915C84.3873 90.3868 83.5747 90.1284 82.9182 89.5664C82.2616 89.0043 81.8078 88.1787 81.6447 87.2495H75V123.986H56.5132C56.3501 124.915 55.8963 125.741 55.2397 126.303C54.5832 126.865 53.7706 127.123 52.9595 127.028C52.1485 126.933 51.3967 126.491 50.85 125.787C50.3034 125.084 50.0007 124.169 50.0007 123.221C50.0007 122.272 50.3034 121.358 50.85 120.654C51.3967 119.951 52.1485 119.509 52.9595 119.413C53.7706 119.318 54.5832 119.577 55.2397 120.139C55.8963 120.701 56.3501 121.526 56.5132 122.455H73.6842V85.7188H81.6447ZM77.5658 185.214C77.4028 186.143 76.949 186.969 76.2924 187.531C75.6358 188.093 74.8232 188.351 74.0122 188.256C73.2011 188.161 72.4494 187.718 71.9027 187.015C71.356 186.311 71.0533 185.397 71.0533 184.449C71.0533 183.5 71.356 182.586 71.9027 181.882C72.4494 181.179 73.2011 180.736 74.0122 180.641C74.8232 180.546 75.6358 180.804 76.2924 181.366C76.949 181.928 77.4028 182.754 77.5658 183.683H115.789V126.971C114.991 126.781 114.281 126.253 113.798 125.49C113.315 124.726 113.093 123.78 113.175 122.837C113.256 121.893 113.637 121.019 114.241 120.383C114.846 119.747 115.632 119.395 116.447 119.395C117.263 119.395 118.049 119.747 118.653 120.383C119.258 121.019 119.638 121.893 119.72 122.837C119.802 123.78 119.58 124.726 119.097 125.49C118.614 126.253 117.904 126.781 117.105 126.971V185.214H77.5658ZM67.0395 136.232C66.8764 137.161 66.4226 137.986 65.7661 138.549C65.1095 139.111 64.2969 139.369 63.4858 139.274C62.6748 139.178 61.923 138.736 61.3764 138.033C60.8297 137.329 60.527 136.415 60.527 135.466C60.527 134.518 60.8297 133.603 61.3764 132.9C61.923 132.197 62.6748 131.754 63.4858 131.659C64.2969 131.564 65.1095 131.822 65.7661 132.384C66.4226 132.946 66.8764 133.772 67.0395 134.701H75V171.438H81.6447C81.8078 170.508 82.2616 169.683 82.9182 169.121C83.5747 168.559 84.3873 168.3 85.1984 168.396C86.0094 168.491 86.7612 168.933 87.3078 169.637C87.8545 170.34 88.1572 171.255 88.1572 172.203C88.1572 173.151 87.8545 174.066 87.3078 174.769C86.7612 175.473 86.0094 175.915 85.1984 176.01C84.3873 176.106 83.5747 175.847 82.9182 175.285C82.2616 174.723 81.8078 173.897 81.6447 172.968H73.6842V136.232H67.0395ZM43.4211 217.435C44.2198 217.625 44.9295 218.153 45.4126 218.916C45.8958 219.68 46.1179 220.625 46.036 221.569C45.954 222.512 45.5739 223.387 44.9692 224.023C44.3645 224.659 43.5783 225.011 42.7632 225.011C41.948 225.011 41.1618 224.659 40.5571 224.023C39.9524 223.387 39.5723 222.512 39.4903 221.569C39.4084 220.625 39.6305 219.68 40.1137 218.916C40.5968 218.153 41.3065 217.625 42.1053 217.435V209.705H32.8947V232.665H31.5789V208.174H43.4211V217.435ZM155.329 134.701C155.492 133.772 155.946 132.946 156.602 132.384C157.259 131.822 158.072 131.564 158.883 131.659C159.694 131.754 160.445 132.197 160.992 132.9C161.539 133.603 161.841 134.518 161.841 135.466C161.841 136.415 161.539 137.329 160.992 138.033C160.445 138.736 159.694 139.178 158.883 139.274C158.072 139.369 157.259 139.111 156.602 138.549C155.946 137.986 155.492 137.161 155.329 136.232H148.684V208.174H180.263V232.665H178.947V209.705H147.368V134.701H155.329ZM172.303 111.741C172.14 112.67 171.686 113.495 171.029 114.057C170.373 114.619 169.56 114.878 168.749 114.783C167.938 114.687 167.186 114.245 166.64 113.542C166.093 112.838 165.79 111.924 165.79 110.975C165.79 110.027 166.093 109.112 166.64 108.409C167.186 107.705 167.938 107.263 168.749 107.168C169.56 107.073 170.373 107.331 171.029 107.893C171.686 108.455 172.14 109.281 172.303 110.21H180.263V143.962C181.062 144.151 181.772 144.679 182.255 145.443C182.738 146.207 182.96 147.152 182.878 148.096C182.796 149.039 182.416 149.914 181.811 150.55C181.207 151.186 180.42 151.538 179.605 151.538C178.79 151.538 178.004 151.186 177.399 150.55C176.795 149.914 176.414 149.039 176.332 148.096C176.251 147.152 176.473 146.207 176.956 145.443C177.439 144.679 178.149 144.151 178.947 143.962V111.741H172.303ZM130.197 185.214C130.034 186.143 129.581 186.969 128.924 187.531C128.267 188.093 127.455 188.351 126.644 188.256C125.833 188.161 125.081 187.718 124.534 187.015C123.988 186.311 123.685 185.397 123.685 184.449C123.685 183.5 123.988 182.586 124.534 181.882C125.081 181.179 125.833 180.736 126.644 180.641C127.455 180.546 128.267 180.804 128.924 181.366C129.581 181.928 130.034 182.754 130.197 183.683H136.842V122.455H147.368V111.741H119.671C119.508 112.67 119.054 113.495 118.398 114.057C117.741 114.619 116.928 114.878 116.117 114.783C115.306 114.687 114.555 114.245 114.008 113.542C113.461 112.838 113.159 111.924 113.159 110.975C113.159 110.027 113.461 109.112 114.008 108.409C114.555 107.705 115.306 107.263 116.117 107.168C116.928 107.073 117.741 107.331 118.398 107.893C119.054 108.455 119.508 109.281 119.671 110.21H148.684V123.986H138.158V185.214H130.197ZM186.908 24.4911C187.071 23.5619 187.525 22.7363 188.181 22.1742C188.838 21.6122 189.65 21.3538 190.462 21.4491C191.273 21.5444 192.024 21.9867 192.571 22.6901C193.118 23.3936 193.42 24.3081 193.42 25.2564C193.42 26.2048 193.118 27.1193 192.571 27.8228C192.024 28.5262 191.273 28.9685 190.462 29.0638C189.65 29.1591 188.838 28.9007 188.181 28.3386C187.525 27.7766 187.071 26.9509 186.908 26.0218H178.947V0H180.263V24.4911H186.908ZM64.4737 77.9888V111.741H35.4605C35.2975 112.67 34.8437 113.495 34.1871 114.057C33.5305 114.619 32.7179 114.878 31.9069 114.783C31.0958 114.687 30.3441 114.245 29.7974 113.542C29.2507 112.838 28.948 111.924 28.948 110.975C28.948 110.027 29.2507 109.112 29.7974 108.409C30.3441 107.705 31.0958 107.263 31.9069 107.168C32.7179 107.073 33.5305 107.331 34.1871 107.893C34.8437 108.455 35.2975 109.281 35.4605 110.21H63.1579V77.9888C62.3592 77.7991 61.6495 77.2712 61.1663 76.5074C60.6832 75.7436 60.461 74.7983 60.543 73.8548C60.6249 72.9112 61.0051 72.0367 61.6098 71.4007C62.2145 70.7648 63.0006 70.4127 63.8158 70.4127C64.631 70.4127 65.4171 70.7648 66.0218 71.4007C66.6265 72.0367 67.0067 72.9112 67.0886 73.8548C67.1705 74.7983 66.9484 75.7436 66.4653 76.5074C65.9821 77.2712 65.2724 77.7991 64.4737 77.9888ZM35.4605 26.0218C35.2975 26.9509 34.8437 27.7766 34.1871 28.3386C33.5305 28.9007 32.7179 29.1591 31.9069 29.0638C31.0958 28.9685 30.3441 28.5262 29.7974 27.8228C29.2507 27.1193 28.948 26.2048 28.948 25.2564C28.948 24.3081 29.2507 23.3936 29.7974 22.6901C30.3441 21.9867 31.0958 21.5444 31.9069 21.4491C32.7179 21.3538 33.5305 21.6122 34.1871 22.1742C34.8437 22.7363 35.2975 23.5619 35.4605 24.4911H52.6316V0H53.9474V26.0218H35.4605ZM75 29.0066V50.5129H53.9474V99.495H45.9868C45.8238 100.424 45.37 101.25 44.7134 101.812C44.0568 102.374 43.2443 102.632 42.4332 102.537C41.6222 102.442 40.8704 101.999 40.3237 101.296C39.777 100.593 39.4744 99.678 39.4744 98.7297C39.4744 97.7814 39.777 96.8668 40.3237 96.1634C40.8704 95.4599 41.6222 95.0177 42.4332 94.9223C43.2443 94.827 44.0568 95.0854 44.7134 95.6475C45.37 96.2095 45.8238 97.0352 45.9868 97.9643H52.6316V48.9822H73.6842V29.0066C72.8855 28.817 72.1758 28.2891 71.6926 27.5252C71.2095 26.7614 70.9874 25.8161 71.0693 24.8726C71.1512 23.9291 71.5314 23.0546 72.1361 22.4186C72.7408 21.7826 73.5269 21.4305 74.3421 21.4305C75.1573 21.4305 75.9434 21.7826 76.5481 22.4186C77.1528 23.0546 77.533 23.9291 77.6149 24.8726C77.6969 25.8161 77.4747 26.7614 76.9916 27.5252C76.5084 28.2891 75.7987 28.817 75 29.0066ZM67.0395 62.7584C66.8764 63.6876 66.4226 64.5132 65.7661 65.0753C65.1095 65.6373 64.2969 65.8957 63.4858 65.8004C62.6748 65.7051 61.923 65.2628 61.3764 64.5594C60.8297 63.8559 60.527 62.9414 60.527 61.9931C60.527 61.0447 60.8297 60.1302 61.3764 59.4267C61.923 58.7233 62.6748 58.281 63.4858 58.1857C64.2969 58.0904 65.1095 58.3488 65.7661 58.9109C66.4226 59.4729 66.8764 60.2986 67.0395 61.2277H84.2105V29.0066C83.4118 28.817 82.7021 28.2891 82.2189 27.5252C81.7358 26.7614 81.5137 25.8161 81.5956 24.8726C81.6775 23.9291 82.0577 23.0546 82.6624 22.4186C83.2671 21.7826 84.0532 21.4305 84.8684 21.4305C85.6836 21.4305 86.4697 21.7826 87.0744 22.4186C87.6791 23.0546 88.0593 23.9291 88.1412 24.8726C88.2232 25.8161 88.001 26.7614 87.5179 27.5252C87.0347 28.2891 86.325 28.817 85.5263 29.0066V62.7584H67.0395ZM77.5658 13.7762C77.4028 14.7054 76.949 15.531 76.2924 16.0931C75.6358 16.6551 74.8232 16.9136 74.0122 16.8182C73.2011 16.7229 72.4494 16.2807 71.9027 15.5772C71.356 14.8738 71.0533 13.9592 71.0533 13.0109C71.0533 12.0626 71.356 11.148 71.9027 10.4446C72.4494 9.74111 73.2011 9.29885 74.0122 9.20354C74.8232 9.10822 75.6358 9.36664 76.2924 9.92869C76.949 10.4907 77.4028 11.3164 77.5658 12.2455H96.0526V45.9973C96.8513 46.187 97.5611 46.7149 98.0442 47.4787C98.5273 48.2425 98.7495 49.1878 98.6676 50.1314C98.5856 51.0749 98.2055 51.9494 97.6008 52.5854C96.9961 53.2214 96.2099 53.5735 95.3947 53.5735C94.5796 53.5735 93.7934 53.2214 93.1887 52.5854C92.584 51.9494 92.2038 51.0749 92.1219 50.1314C92.04 49.1878 92.2621 48.2425 92.7453 47.4787C93.2284 46.7149 93.9381 46.187 94.7368 45.9973V13.7762H77.5658ZM144.803 220.42C144.966 219.491 145.419 218.665 146.076 218.103C146.733 217.541 147.545 217.282 148.356 217.378C149.167 217.473 149.919 217.915 150.466 218.619C151.012 219.322 151.315 220.237 151.315 221.185C151.315 222.133 151.012 223.048 150.466 223.751C149.919 224.455 149.167 224.897 148.356 224.992C147.545 225.088 146.733 224.829 146.076 224.267C145.419 223.705 144.966 222.88 144.803 221.95H64.4737V232.665H63.1579V220.42H144.803ZM159.211 114.725V122.455H169.737V148.477H159.211V195.929H190.789V232.665H189.474V197.459H157.895V146.947H168.421V123.986H157.895V114.725C157.096 114.536 156.386 114.008 155.903 113.244C155.42 112.48 155.198 111.535 155.28 110.591C155.362 109.648 155.742 108.773 156.347 108.137C156.951 107.501 157.737 107.149 158.553 107.149C159.368 107.149 160.154 107.501 160.759 108.137C161.363 108.773 161.744 109.648 161.825 110.591C161.907 111.535 161.685 112.48 161.202 113.244C160.719 114.008 160.009 114.536 159.211 114.725ZM35.4605 13.7762C35.2975 14.7054 34.8437 15.531 34.1871 16.0931C33.5305 16.6551 32.7179 16.9136 31.9069 16.8182C31.0958 16.7229 30.3441 16.2807 29.7974 15.5772C29.2507 14.8738 28.948 13.9592 28.948 13.0109C28.948 12.0626 29.2507 11.148 29.7974 10.4446C30.3441 9.74111 31.0958 9.29885 31.9069 9.20354C32.7179 9.10822 33.5305 9.36664 34.1871 9.92869C34.8437 10.4907 35.2975 11.3164 35.4605 12.2455H42.1053V1.53069H31.5789V0H43.4211V13.7762H35.4605ZM109.145 38.2673C108.982 39.1965 108.528 40.0221 107.871 40.5842C107.215 41.1462 106.402 41.4046 105.591 41.3093C104.78 41.214 104.028 40.7718 103.482 40.0683C102.935 39.3648 102.632 38.4503 102.632 37.502C102.632 36.5537 102.935 35.6391 103.482 34.9357C104.028 34.2322 104.78 33.7899 105.591 33.6946C106.402 33.5993 107.215 33.8577 107.871 34.4198C108.528 34.9818 108.982 35.8075 109.145 36.7366H126.316V0H159.211V1.53069H127.632V38.2673H109.145ZM77.5658 1.53069C77.4794 2.02318 77.3105 2.49104 77.0686 2.90757C76.8268 3.32411 76.5168 3.68115 76.1564 3.95832C75.796 4.23549 75.3921 4.42735 74.9679 4.52296C74.5438 4.61857 74.1076 4.61605 73.6842 4.51554C73.2609 4.41504 72.8587 4.21851 72.5006 3.93719C72.1426 3.65587 71.8357 3.29526 71.5974 2.87596C71.1162 2.02913 70.9439 0.994614 71.1184 0L72.4803 0C72.3756 0.346218 72.3437 0.716588 72.3875 1.08006C72.4312 1.44354 72.5491 1.78953 72.7315 2.08903C72.9138 2.38853 73.1553 2.63281 73.4355 2.8014C73.7157 2.96999 74.0266 3.05797 74.3421 3.05797C74.6576 3.05797 74.9685 2.96999 75.2487 2.8014C75.529 2.63281 75.7704 2.38853 75.9527 2.08903C76.1351 1.78953 76.253 1.44354 76.2968 1.08006C76.3405 0.716588 76.3086 0.346218 76.2039 0L117.105 0V26.0218H105.263V16.7611C104.464 16.5714 103.755 16.0435 103.272 15.2797C102.788 14.5159 102.566 13.5706 102.648 12.6271C102.73 11.6835 103.11 10.809 103.715 10.173C104.32 9.53706 105.106 9.18494 105.921 9.18494C106.736 9.18494 107.522 9.53706 108.127 10.173C108.732 10.809 109.112 11.6835 109.194 12.6271C109.276 13.5706 109.054 14.5159 108.571 15.2797C108.087 16.0435 107.378 16.5714 106.579 16.7611V24.4911H115.789V1.53069H77.5658ZM77.5658 75.004C77.4028 75.9331 76.949 76.7588 76.2924 77.3208C75.6358 77.8829 74.8232 78.1413 74.0122 78.046C73.2011 77.9506 72.4494 77.5084 71.9027 76.8049C71.356 76.1015 71.0533 75.1869 71.0533 74.2386C71.0533 73.2903 71.356 72.3757 71.9027 71.6723C72.4494 70.9688 73.2011 70.5266 74.0122 70.4313C74.8232 70.3359 75.6358 70.5944 76.2924 71.1564C76.949 71.7185 77.4028 72.5441 77.5658 73.4733H90.1316L111.184 48.9822H136.842V16.7611C136.043 16.5714 135.334 16.0435 134.851 15.2797C134.367 14.5159 134.145 13.5706 134.227 12.6271C134.309 11.6835 134.689 10.809 135.294 10.173C135.899 9.53706 136.685 9.18494 137.5 9.18494C138.315 9.18494 139.101 9.53706 139.706 10.173C140.311 10.809 140.691 11.6835 140.773 12.6271C140.855 13.5706 140.633 14.5159 140.149 15.2797C139.666 16.0435 138.957 16.5714 138.158 16.7611V50.5129H111.73L90.6776 75.004H77.5658ZM96.0526 143.962C96.8513 144.151 97.5611 144.679 98.0442 145.443C98.5273 146.207 98.7495 147.152 98.6676 148.096C98.5856 149.039 98.2055 149.914 97.6008 150.55C96.9961 151.186 96.2099 151.538 95.3947 151.538C94.5796 151.538 93.7934 151.186 93.1887 150.55C92.584 149.914 92.2038 149.039 92.1219 148.096C92.04 147.152 92.2621 146.207 92.7453 145.443C93.2284 144.679 93.9381 144.151 94.7368 143.962V85.405L115.52 61.2277H147.368V16.7611C146.57 16.5714 145.86 16.0435 145.377 15.2797C144.894 14.5159 144.672 13.5706 144.753 12.6271C144.835 11.6835 145.216 10.809 145.82 10.173C146.425 9.53706 147.211 9.18494 148.026 9.18494C148.841 9.18494 149.628 9.53706 150.232 10.173C150.837 10.809 151.217 11.6835 151.299 12.6271C151.381 13.5706 151.159 14.5159 150.676 15.2797C150.193 16.0435 149.483 16.5714 148.684 16.7611V62.7584H116.059L96.0526 86.0326V143.962ZM106.579 168.453C107.378 168.642 108.087 169.17 108.571 169.934C109.054 170.698 109.276 171.643 109.194 172.587C109.112 173.53 108.732 174.405 108.127 175.041C107.522 175.677 106.736 176.029 105.921 176.029C105.106 176.029 104.32 175.677 103.715 175.041C103.11 174.405 102.73 173.53 102.648 172.587C102.566 171.643 102.788 170.698 103.272 169.934C103.755 169.17 104.464 168.642 105.263 168.453V92.2931L121.441 73.4733H197.434C197.563 72.7378 197.875 72.0628 198.331 71.5321C198.788 71.0013 199.368 70.6384 200 70.4884V72.0727C199.614 72.2304 199.281 72.5235 199.044 72.9115C198.808 73.2995 198.681 73.7632 198.681 74.2386C198.681 74.714 198.808 75.1777 199.044 75.5657C199.281 75.9537 199.614 76.2468 200 76.4045V77.9888C199.368 77.8388 198.788 77.4759 198.331 76.9452C197.875 76.4144 197.563 75.7394 197.434 75.004H121.98L106.579 92.9207V168.453ZM11.8421 119.471C12.6408 119.66 13.3505 120.188 13.8337 120.952C14.3168 121.716 14.539 122.661 14.457 123.605C14.3751 124.548 13.9949 125.423 13.3902 126.059C12.7855 126.695 11.9994 127.047 11.1842 127.047C10.369 127.047 9.58288 126.695 8.97819 126.059C8.37349 125.423 7.99333 124.548 7.91139 123.605C7.82946 122.661 8.0516 121.716 8.53474 120.952C9.01788 120.188 9.7276 119.66 10.5263 119.471V116.784L42.1053 80.0476V36.7366H63.1579V0H64.4737V38.2673H43.4211V80.6752L11.8421 117.412V119.471ZM32.8947 41.2522V74.5524L1.31579 111.289V159.192H18.4868C18.6499 158.263 19.1037 157.437 19.7603 156.875C20.4168 156.313 21.2294 156.055 22.0405 156.15C22.8515 156.245 23.6033 156.688 24.15 157.391C24.6966 158.095 24.9993 159.009 24.9993 159.957C24.9993 160.906 24.6966 161.82 24.15 162.524C23.6033 163.227 22.8515 163.669 22.0405 163.765C21.2294 163.86 20.4168 163.602 19.7603 163.04C19.1037 162.478 18.6499 161.652 18.4868 160.723H0V110.661L31.5789 73.9248V41.2522C30.7802 41.0625 30.0705 40.5346 29.5874 39.7708C29.1042 39.007 28.8821 38.0617 28.964 37.1181C29.046 36.1746 29.4261 35.3001 30.0308 34.6641C30.6355 34.0281 31.4217 33.676 32.2368 33.676C33.052 33.676 33.8382 34.0281 34.4429 34.6641C35.0476 35.3001 35.4277 36.1746 35.5097 37.1181C35.5916 38.0617 35.3695 39.007 34.8863 39.7708C34.4032 40.5346 33.6934 41.0625 32.8947 41.2522ZM22.3684 53.4977V68.4296L0 94.4514V92.2931L21.0526 67.802V53.4977C20.2539 53.3081 19.5442 52.7801 19.0611 52.0163C18.5779 51.2525 18.3558 50.3072 18.4377 49.3637C18.5196 48.4202 18.8998 47.5456 19.5045 46.9097C20.1092 46.2737 20.8953 45.9216 21.7105 45.9216C22.5257 45.9216 23.3119 46.2737 23.9165 46.9097C24.5212 47.5456 24.9014 48.4202 24.9833 49.3637C25.0653 50.3072 24.8431 51.2525 24.36 52.0163C23.8769 52.7801 23.1671 53.3081 22.3684 53.4977ZM7.96053 24.4911C8.12356 23.5619 8.57736 22.7363 9.23394 22.1742C9.89052 21.6122 10.7031 21.3538 11.5142 21.4491C12.3252 21.5444 13.077 21.9867 13.6236 22.6901C14.1703 23.3936 14.473 24.3081 14.473 25.2564C14.473 26.2048 14.1703 27.1193 13.6236 27.8228C13.077 28.5262 12.3252 28.9685 11.5142 29.0638C10.7031 29.1591 9.89052 28.9007 9.23394 28.3386C8.57736 27.7766 8.12356 26.9509 7.96053 26.0218H6.19079L0 33.2237V31.0731L5.65132 24.4911H7.96053ZM182.829 38.2673C182.666 39.1965 182.212 40.0221 181.556 40.5842C180.899 41.1462 180.086 41.4046 179.275 41.3093C178.464 41.214 177.713 40.7718 177.166 40.0683C176.619 39.3648 176.316 38.4503 176.316 37.502C176.316 36.5537 176.619 35.6391 177.166 34.9357C177.713 34.2322 178.464 33.7899 179.275 33.6946C180.086 33.5993 180.899 33.8577 181.556 34.4198C182.212 34.9818 182.666 35.8075 182.829 36.7366H195.125L200 31.0654V33.2237L195.664 38.2673H182.829ZM172.303 160.723C172.14 161.652 171.686 162.478 171.029 163.04C170.373 163.602 169.56 163.86 168.749 163.765C167.938 163.669 167.186 163.227 166.64 162.524C166.093 161.82 165.79 160.906 165.79 159.957C165.79 159.009 166.093 158.095 166.64 157.391C167.186 156.688 167.938 156.245 168.749 156.15C169.56 156.055 170.373 156.313 171.029 156.875C171.686 157.437 172.14 158.263 172.303 159.192H189.474V104.539L200 92.2931V94.4514L190.789 105.166V160.723H172.303ZM35.4605 185.214C35.2975 186.143 34.8437 186.969 34.1871 187.531C33.5305 188.093 32.7179 188.351 31.9069 188.256C31.0958 188.161 30.3441 187.718 29.7974 187.015C29.2507 186.311 28.948 185.397 28.948 184.449C28.948 183.5 29.2507 182.586 29.7974 181.882C30.3441 181.179 31.0958 180.736 31.9069 180.641C32.7179 180.546 33.5305 180.804 34.1871 181.366C34.8437 181.928 35.2975 182.754 35.4605 183.683H42.1053V166.394L26.7039 148.477H14.4079C14.2449 149.406 13.7911 150.232 13.1345 150.794C12.4779 151.356 11.6653 151.615 10.8543 151.519C10.0432 151.424 9.29146 150.982 8.74478 150.278C8.19809 149.575 7.89541 148.66 7.89541 147.712C7.89541 146.764 8.19809 145.849 8.74478 145.146C9.29146 144.442 10.0432 144 10.8543 143.905C11.6653 143.809 12.4779 144.068 13.1345 144.63C13.7911 145.192 14.2449 146.017 14.4079 146.947H27.2434L43.4211 165.766V185.214H35.4605ZM134.276 195.929C134.439 195 134.893 194.174 135.55 193.612C136.206 193.05 137.019 192.791 137.83 192.887C138.641 192.982 139.393 193.424 139.939 194.128C140.486 194.831 140.789 195.746 140.789 196.694C140.789 197.642 140.486 198.557 139.939 199.26C139.393 199.964 138.641 200.406 137.83 200.501C137.019 200.597 136.206 200.338 135.55 199.776C134.893 199.214 134.439 198.389 134.276 197.459H63.1579V154.141L37.2368 123.986H24.9342C24.7712 124.915 24.3174 125.741 23.6608 126.303C23.0042 126.865 22.1916 127.123 21.3806 127.028C20.5695 126.933 19.8178 126.491 19.2711 125.787C18.7244 125.084 18.4217 124.169 18.4217 123.221C18.4217 122.272 18.7244 121.358 19.2711 120.654C19.8178 119.951 20.5695 119.509 21.3806 119.413C22.1916 119.318 23.0042 119.577 23.6608 120.139C24.3174 120.701 24.7712 121.526 24.9342 122.455H37.7632L64.4737 153.529V195.929H134.276ZM35.4605 197.459C35.2975 198.389 34.8437 199.214 34.1871 199.776C33.5305 200.338 32.7179 200.597 31.9069 200.501C31.0958 200.406 30.3441 199.964 29.7974 199.26C29.2507 198.557 28.948 197.642 28.948 196.694C28.948 195.746 29.2507 194.831 29.7974 194.128C30.3441 193.424 31.0958 192.982 31.9069 192.887C32.7179 192.791 33.5305 193.05 34.1871 193.612C34.8437 194.174 35.2975 195 35.4605 195.929H52.6316V160.271L31.9671 136.232H14.4079C14.2449 137.161 13.7911 137.986 13.1345 138.549C12.4779 139.111 11.6653 139.369 10.8543 139.274C10.0432 139.178 9.29146 138.736 8.74478 138.033C8.19809 137.329 7.89541 136.415 7.89541 135.466C7.89541 134.518 8.19809 133.603 8.74478 132.9C9.29146 132.197 10.0432 131.754 10.8543 131.659C11.6653 131.564 12.4779 131.822 13.1345 132.384C13.7911 132.946 14.2449 133.772 14.4079 134.701H32.5066L53.9474 159.644V197.459H35.4605ZM22.3684 30.4608V31.693L6.19079 50.5129H0V48.9822H5.65132L21.0526 31.0654V0H22.3684V30.4608ZM1.31579 229.68C1.94796 229.83 2.52825 230.193 2.98446 230.724C3.44067 231.255 3.75265 231.93 3.88158 232.665H2.51974C2.43345 232.381 2.29981 232.119 2.12644 231.894C1.95308 231.67 1.7434 231.488 1.50939 231.358C1.27538 231.227 1.02162 231.152 0.762631 231.136C0.503641 231.12 0.244492 231.164 0 231.265L0 195.929H11.8421V232.665H10.5263V197.459H1.31579V229.68ZM22.3684 184.449V232.665H21.0526V185.214H0V183.683H22.3684V184.449ZM11.1842 13.7762H0V12.2455H10.5263V0H11.8421V13.7762H11.1842ZM190.789 12.2455H200V13.7762H189.474V0H190.789V12.2455ZM169.737 221.185V232.665H168.421V221.95H159.211V232.665H157.895V220.42H169.737V221.185ZM0 70.4884C0.477708 70.3778 0.970536 70.3915 1.44317 70.5284C1.9158 70.6654 2.35654 70.9223 2.7338 71.2807C3.11106 71.6392 3.4155 72.0902 3.62531 72.6016C3.83512 73.113 3.9451 73.672 3.94737 74.2386C3.94747 74.8061 3.83906 75.3666 3.63 75.8793C3.42093 76.3921 3.11645 76.8443 2.7386 77.2033C2.36075 77.5623 1.919 77.819 1.44534 77.9549C0.971686 78.0907 0.477984 78.1023 0 77.9888L0 76.4045C0.29761 76.5263 0.615982 76.5634 0.928427 76.5125C1.24087 76.4616 1.53829 76.3244 1.79574 76.1123C2.05319 75.9001 2.26318 75.6193 2.4081 75.2933C2.55301 74.9673 2.62864 74.6056 2.62864 74.2386C2.62864 73.8716 2.55301 73.5099 2.4081 73.1839C2.26318 72.8579 2.05319 72.5771 1.79574 72.3649C1.53829 72.1528 1.24087 72.0156 0.928427 71.9647C0.615982 71.9139 0.29761 71.9509 0 72.0727L0 70.4884ZM52.6316 208.174H53.9474V232.665H52.6316V208.174ZM77.5658 232.665H76.2039C76.0683 232.217 75.8164 231.828 75.4829 231.554C75.1494 231.279 74.7508 231.131 74.3421 231.131C73.9334 231.131 73.5348 231.279 73.2013 231.554C72.8678 231.828 72.6159 232.217 72.4803 232.665H71.1184C71.2694 231.8 71.6728 231.023 72.2604 230.464C72.8479 229.905 73.5833 229.6 74.3421 229.6C75.1009 229.6 75.8363 229.905 76.4239 230.464C77.0114 231.023 77.4148 231.8 77.5658 232.665ZM3.88158 0C3.98707 0.619309 3.95974 1.25932 3.802 1.86341C3.64427 2.46751 3.361 3.01708 2.97725 3.46351C2.59349 3.90994 2.12108 4.23948 1.6018 4.42297C1.08251 4.60647 0.53236 4.63826 0 4.51554L0 2.93128C0.351459 3.07623 0.731026 3.10239 1.09474 3.00673C1.45845 2.91106 1.79143 2.69749 2.0551 2.39075C2.31878 2.08402 2.50236 1.69665 2.58459 1.27354C2.66682 0.850422 2.64434 0.408862 2.51974 0L3.88158 0ZM197.434 0H198.796C198.71 0.284424 198.672 0.585898 198.686 0.887189C198.699 1.18848 198.764 1.48368 198.876 1.75591C198.988 2.02814 199.144 2.27207 199.337 2.47375C199.53 2.67542 199.755 2.8309 200 2.93128V4.51554C199.577 4.41513 199.174 4.21866 198.816 3.93737C198.458 3.65607 198.151 3.29546 197.913 2.87613C197.675 2.4568 197.51 1.98697 197.428 1.49347C197.346 0.999978 197.348 0.492491 197.434 0V0ZM200 229.68V231.265C199.722 231.379 199.47 231.564 199.262 231.806C199.053 232.049 198.894 232.342 198.796 232.665H197.434C197.563 231.93 197.875 231.255 198.331 230.724C198.788 230.193 199.368 229.83 200 229.68ZM63.8158 76.5346C64.075 76.5346 64.3316 76.4753 64.5711 76.3599C64.8105 76.2445 65.0281 76.0754 65.2114 75.8622C65.3947 75.6489 65.54 75.3958 65.6392 75.1173C65.7384 74.8387 65.7895 74.5401 65.7895 74.2386C65.7895 73.9371 65.7384 73.6385 65.6392 73.36C65.54 73.0814 65.3947 72.8283 65.2114 72.6151C65.0281 72.4019 64.8105 72.2327 64.5711 72.1173C64.3316 72.002 64.075 71.9426 63.8158 71.9426C63.2923 71.9426 62.7903 72.1845 62.4202 72.6151C62.05 73.0457 61.8421 73.6297 61.8421 74.2386C61.8421 74.8476 62.05 75.4316 62.4202 75.8622C62.7903 76.2927 63.2923 76.5346 63.8158 76.5346ZM63.8158 64.2891C64.3392 64.2891 64.8413 64.0472 65.2114 63.6166C65.5815 63.186 65.7895 62.602 65.7895 61.9931C65.7895 61.3841 65.5815 60.8001 65.2114 60.3695C64.8413 59.9389 64.3392 59.697 63.8158 59.697C63.2923 59.697 62.7903 59.9389 62.4202 60.3695C62.05 60.8001 61.8421 61.3841 61.8421 61.9931C61.8421 62.602 62.05 63.186 62.4202 63.6166C62.7903 64.0472 63.2923 64.2891 63.8158 64.2891ZM74.3421 76.5346C74.6013 76.5346 74.8579 76.4753 75.0974 76.3599C75.3369 76.2445 75.5544 76.0754 75.7377 75.8622C75.921 75.6489 76.0664 75.3958 76.1656 75.1173C76.2647 74.8387 76.3158 74.5401 76.3158 74.2386C76.3158 73.9371 76.2647 73.6385 76.1656 73.36C76.0664 73.0814 75.921 72.8283 75.7377 72.6151C75.5544 72.4019 75.3369 72.2327 75.0974 72.1173C74.8579 72.002 74.6013 71.9426 74.3421 71.9426C73.8186 71.9426 73.3166 72.1845 72.9465 72.6151C72.5764 73.0457 72.3684 73.6297 72.3684 74.2386C72.3684 74.8476 72.5764 75.4316 72.9465 75.8622C73.3166 76.2927 73.8186 76.5346 74.3421 76.5346ZM84.8684 88.7802C85.3919 88.7802 85.8939 88.5383 86.264 88.1077C86.6342 87.6771 86.8421 87.0931 86.8421 86.4842C86.8421 85.8752 86.6342 85.2912 86.264 84.8606C85.8939 84.43 85.3919 84.1881 84.8684 84.1881C84.345 84.1881 83.8429 84.43 83.4728 84.8606C83.1027 85.2912 82.8947 85.8752 82.8947 86.4842C82.8947 87.0931 83.1027 87.6771 83.4728 88.1077C83.8429 88.5383 84.345 88.7802 84.8684 88.7802ZM84.8684 101.026C85.3919 101.026 85.8939 100.784 86.264 100.353C86.6342 99.9227 86.8421 99.3386 86.8421 98.7297C86.8421 98.1208 86.6342 97.5367 86.264 97.1061C85.8939 96.6756 85.3919 96.4337 84.8684 96.4337C84.345 96.4337 83.8429 96.6756 83.4728 97.1061C83.1027 97.5367 82.8947 98.1208 82.8947 98.7297C82.8947 99.3386 83.1027 99.9227 83.4728 100.353C83.8429 100.784 84.345 101.026 84.8684 101.026ZM53.2895 125.517C53.8129 125.517 54.3149 125.275 54.6851 124.844C55.0552 124.414 55.2632 123.83 55.2632 123.221C55.2632 122.612 55.0552 122.028 54.6851 121.597C54.3149 121.167 53.8129 120.925 53.2895 120.925C52.766 120.925 52.264 121.167 51.8939 121.597C51.5237 122.028 51.3158 122.612 51.3158 123.221C51.3158 123.83 51.5237 124.414 51.8939 124.844C52.264 125.275 52.766 125.517 53.2895 125.517ZM63.8158 137.762C64.3392 137.762 64.8413 137.52 65.2114 137.09C65.5815 136.659 65.7895 136.075 65.7895 135.466C65.7895 134.857 65.5815 134.273 65.2114 133.843C64.8413 133.412 64.3392 133.17 63.8158 133.17C63.2923 133.17 62.7903 133.412 62.4202 133.843C62.05 134.273 61.8421 134.857 61.8421 135.466C61.8421 136.075 62.05 136.659 62.4202 137.09C62.7903 137.52 63.2923 137.762 63.8158 137.762ZM84.8684 174.499C85.3919 174.499 85.8939 174.257 86.264 173.827C86.6342 173.396 86.8421 172.812 86.8421 172.203C86.8421 171.594 86.6342 171.01 86.264 170.579C85.8939 170.149 85.3919 169.907 84.8684 169.907C84.345 169.907 83.8429 170.149 83.4728 170.579C83.1027 171.01 82.8947 171.594 82.8947 172.203C82.8947 172.812 83.1027 173.396 83.4728 173.827C83.8429 174.257 84.345 174.499 84.8684 174.499ZM74.3421 186.745C74.8656 186.745 75.3676 186.503 75.7377 186.072C76.1078 185.641 76.3158 185.057 76.3158 184.449C76.3158 183.84 76.1078 183.256 75.7377 182.825C75.3676 182.394 74.8656 182.152 74.3421 182.152C73.8186 182.152 73.3166 182.394 72.9465 182.825C72.5764 183.256 72.3684 183.84 72.3684 184.449C72.3684 185.057 72.5764 185.641 72.9465 186.072C73.3166 186.503 73.8186 186.745 74.3421 186.745ZM95.3947 174.499C95.9182 174.499 96.4202 174.257 96.7903 173.827C97.1605 173.396 97.3684 172.812 97.3684 172.203C97.3684 171.594 97.1605 171.01 96.7903 170.579C96.4202 170.149 95.9182 169.907 95.3947 169.907C94.8713 169.907 94.3693 170.149 93.9991 170.579C93.629 171.01 93.4211 171.594 93.4211 172.203C93.4211 172.812 93.629 173.396 93.9991 173.827C94.3693 174.257 94.8713 174.499 95.3947 174.499ZM95.3947 150.008C95.9182 150.008 96.4202 149.766 96.7903 149.335C97.1605 148.905 97.3684 148.321 97.3684 147.712C97.3684 147.103 97.1605 146.519 96.7903 146.088C96.4202 145.658 95.9182 145.416 95.3947 145.416C94.8713 145.416 94.3693 145.658 93.9991 146.088C93.629 146.519 93.4211 147.103 93.4211 147.712C93.4211 148.321 93.629 148.905 93.9991 149.335C94.3693 149.766 94.8713 150.008 95.3947 150.008ZM105.921 174.499C106.445 174.499 106.947 174.257 107.317 173.827C107.687 173.396 107.895 172.812 107.895 172.203C107.895 171.594 107.687 171.01 107.317 170.579C106.947 170.149 106.445 169.907 105.921 169.907C105.398 169.907 104.896 170.149 104.525 170.579C104.155 171.01 103.947 171.594 103.947 172.203C103.947 172.812 104.155 173.396 104.525 173.827C104.896 174.257 105.398 174.499 105.921 174.499ZM126.974 186.745C127.497 186.745 127.999 186.503 128.369 186.072C128.739 185.641 128.947 185.057 128.947 184.449C128.947 183.84 128.739 183.256 128.369 182.825C127.999 182.394 127.497 182.152 126.974 182.152C126.45 182.152 125.948 182.394 125.578 182.825C125.208 183.256 125 183.84 125 184.449C125 185.057 125.208 185.641 125.578 186.072C125.948 186.503 126.45 186.745 126.974 186.745ZM126.974 174.499C127.497 174.499 127.999 174.257 128.369 173.827C128.739 173.396 128.947 172.812 128.947 172.203C128.947 171.594 128.739 171.01 128.369 170.579C127.999 170.149 127.497 169.907 126.974 169.907C126.45 169.907 125.948 170.149 125.578 170.579C125.208 171.01 125 171.594 125 172.203C125 172.812 125.208 173.396 125.578 173.827C125.948 174.257 126.45 174.499 126.974 174.499ZM116.447 125.517C116.971 125.517 117.473 125.275 117.843 124.844C118.213 124.414 118.421 123.83 118.421 123.221C118.421 122.612 118.213 122.028 117.843 121.597C117.473 121.167 116.971 120.925 116.447 120.925C115.924 120.925 115.422 121.167 115.052 121.597C114.682 122.028 114.474 122.612 114.474 123.221C114.474 123.83 114.682 124.414 115.052 124.844C115.422 125.275 115.924 125.517 116.447 125.517ZM126.974 125.517C127.497 125.517 127.999 125.275 128.369 124.844C128.739 124.414 128.947 123.83 128.947 123.221C128.947 122.612 128.739 122.028 128.369 121.597C127.999 121.167 127.497 120.925 126.974 120.925C126.45 120.925 125.948 121.167 125.578 121.597C125.208 122.028 125 122.612 125 123.221C125 123.83 125.208 124.414 125.578 124.844C125.948 125.275 126.45 125.517 126.974 125.517ZM137.5 198.99C138.023 198.99 138.525 198.748 138.896 198.318C139.266 197.887 139.474 197.303 139.474 196.694C139.474 196.085 139.266 195.501 138.896 195.07C138.525 194.64 138.023 194.398 137.5 194.398C136.977 194.398 136.475 194.64 136.104 195.07C135.734 195.501 135.526 196.085 135.526 196.694C135.526 197.303 135.734 197.887 136.104 198.318C136.475 198.748 136.977 198.99 137.5 198.99ZM137.5 211.236C138.023 211.236 138.525 210.994 138.896 210.563C139.266 210.133 139.474 209.549 139.474 208.94C139.474 208.331 139.266 207.747 138.896 207.316C138.525 206.885 138.023 206.644 137.5 206.644C136.977 206.644 136.475 206.885 136.104 207.316C135.734 207.747 135.526 208.331 135.526 208.94C135.526 209.549 135.734 210.133 136.104 210.563C136.475 210.994 136.977 211.236 137.5 211.236ZM148.026 223.481C148.55 223.481 149.052 223.239 149.422 222.809C149.792 222.378 150 221.794 150 221.185C150 220.576 149.792 219.992 149.422 219.562C149.052 219.131 148.55 218.889 148.026 218.889C147.503 218.889 147.001 219.131 146.631 219.562C146.261 219.992 146.053 220.576 146.053 221.185C146.053 221.794 146.261 222.378 146.631 222.809C147.001 223.239 147.503 223.481 148.026 223.481ZM158.553 113.271C159.076 113.271 159.578 113.029 159.948 112.599C160.318 112.168 160.526 111.584 160.526 110.975C160.526 110.366 160.318 109.782 159.948 109.352C159.578 108.921 159.076 108.679 158.553 108.679C158.029 108.679 157.527 108.921 157.157 109.352C156.787 109.782 156.579 110.366 156.579 110.975C156.579 111.584 156.787 112.168 157.157 112.599C157.527 113.029 158.029 113.271 158.553 113.271ZM158.553 137.762C159.076 137.762 159.578 137.52 159.948 137.09C160.318 136.659 160.526 136.075 160.526 135.466C160.526 134.857 160.318 134.273 159.948 133.843C159.578 133.412 159.076 133.17 158.553 133.17C158.029 133.17 157.527 133.412 157.157 133.843C156.787 134.273 156.579 134.857 156.579 135.466C156.579 136.075 156.787 136.659 157.157 137.09C157.527 137.52 158.029 137.762 158.553 137.762ZM169.079 113.271C169.602 113.271 170.104 113.029 170.475 112.599C170.845 112.168 171.053 111.584 171.053 110.975C171.053 110.366 170.845 109.782 170.475 109.352C170.104 108.921 169.602 108.679 169.079 108.679C168.555 108.679 168.053 108.921 167.683 109.352C167.313 109.782 167.105 110.366 167.105 110.975C167.105 111.584 167.313 112.168 167.683 112.599C168.053 113.029 168.555 113.271 169.079 113.271ZM179.605 101.026C180.129 101.026 180.631 100.784 181.001 100.353C181.371 99.9227 181.579 99.3386 181.579 98.7297C181.579 98.1208 181.371 97.5367 181.001 97.1061C180.631 96.6756 180.129 96.4337 179.605 96.4337C179.082 96.4337 178.58 96.6756 178.21 97.1061C177.84 97.5367 177.632 98.1208 177.632 98.7297C177.632 99.3386 177.84 99.9227 178.21 100.353C178.58 100.784 179.082 101.026 179.605 101.026ZM116.447 101.026C116.971 101.026 117.473 100.784 117.843 100.353C118.213 99.9227 118.421 99.3386 118.421 98.7297C118.421 98.1208 118.213 97.5367 117.843 97.1061C117.473 96.6756 116.971 96.4337 116.447 96.4337C115.924 96.4337 115.422 96.6756 115.052 97.1061C114.682 97.5367 114.474 98.1208 114.474 98.7297C114.474 99.3386 114.682 99.9227 115.052 100.353C115.422 100.784 115.924 101.026 116.447 101.026ZM116.447 113.271C116.971 113.271 117.473 113.029 117.843 112.599C118.213 112.168 118.421 111.584 118.421 110.975C118.421 110.366 118.213 109.782 117.843 109.352C117.473 108.921 116.971 108.679 116.447 108.679C115.924 108.679 115.422 108.921 115.052 109.352C114.682 109.782 114.474 110.366 114.474 110.975C114.474 111.584 114.682 112.168 115.052 112.599C115.422 113.029 115.924 113.271 116.447 113.271ZM126.974 88.7802C127.497 88.7802 127.999 88.5383 128.369 88.1077C128.739 87.6771 128.947 87.0931 128.947 86.4842C128.947 85.8752 128.739 85.2912 128.369 84.8606C127.999 84.43 127.497 84.1881 126.974 84.1881C126.45 84.1881 125.948 84.43 125.578 84.8606C125.208 85.2912 125 85.8752 125 86.4842C125 87.0931 125.208 87.6771 125.578 88.1077C125.948 88.5383 126.45 88.7802 126.974 88.7802ZM190.132 88.7802C190.655 88.7802 191.157 88.5383 191.527 88.1077C191.897 87.6771 192.105 87.0931 192.105 86.4842C192.105 85.8752 191.897 85.2912 191.527 84.8606C191.157 84.43 190.655 84.1881 190.132 84.1881C189.608 84.1881 189.106 84.43 188.736 84.8606C188.366 85.2912 188.158 85.8752 188.158 86.4842C188.158 87.0931 188.366 87.6771 188.736 88.1077C189.106 88.5383 189.608 88.7802 190.132 88.7802ZM179.605 39.798C180.129 39.798 180.631 39.5561 181.001 39.1255C181.371 38.6949 181.579 38.1109 181.579 37.502C181.579 36.893 181.371 36.309 181.001 35.8784C180.631 35.4478 180.129 35.2059 179.605 35.2059C179.082 35.2059 178.58 35.4478 178.21 35.8784C177.84 36.309 177.632 36.893 177.632 37.502C177.632 38.1109 177.84 38.6949 178.21 39.1255C178.58 39.5561 179.082 39.798 179.605 39.798ZM190.132 27.5525C190.655 27.5525 191.157 27.3106 191.527 26.88C191.897 26.4494 192.105 25.8654 192.105 25.2564C192.105 24.6475 191.897 24.0635 191.527 23.6329C191.157 23.2023 190.655 22.9604 190.132 22.9604C189.608 22.9604 189.106 23.2023 188.736 23.6329C188.366 24.0635 188.158 24.6475 188.158 25.2564C188.158 25.8654 188.366 26.4494 188.736 26.88C189.106 27.3106 189.608 27.5525 190.132 27.5525ZM169.079 27.5525C169.602 27.5525 170.104 27.3106 170.475 26.88C170.845 26.4494 171.053 25.8654 171.053 25.2564C171.053 24.6475 170.845 24.0635 170.475 23.6329C170.104 23.2023 169.602 22.9604 169.079 22.9604C168.555 22.9604 168.053 23.2023 167.683 23.6329C167.313 24.0635 167.105 24.6475 167.105 25.2564C167.105 25.8654 167.313 26.4494 167.683 26.88C168.053 27.3106 168.555 27.5525 169.079 27.5525ZM169.079 15.3069C169.602 15.3069 170.104 15.065 170.475 14.6344C170.845 14.2038 171.053 13.6198 171.053 13.0109C171.053 12.4019 170.845 11.8179 170.475 11.3873C170.104 10.9568 169.602 10.7149 169.079 10.7149C168.555 10.7149 168.053 10.9568 167.683 11.3873C167.313 11.8179 167.105 12.4019 167.105 13.0109C167.105 13.6198 167.313 14.2038 167.683 14.6344C168.053 15.065 168.555 15.3069 169.079 15.3069ZM158.553 15.3069C159.076 15.3069 159.578 15.065 159.948 14.6344C160.318 14.2038 160.526 13.6198 160.526 13.0109C160.526 12.4019 160.318 11.8179 159.948 11.3873C159.578 10.9568 159.076 10.7149 158.553 10.7149C158.029 10.7149 157.527 10.9568 157.157 11.3873C156.787 11.8179 156.579 12.4019 156.579 13.0109C156.579 13.6198 156.787 14.2038 157.157 14.6344C157.527 15.065 158.029 15.3069 158.553 15.3069ZM148.026 15.3069C148.55 15.3069 149.052 15.065 149.422 14.6344C149.792 14.2038 150 13.6198 150 13.0109C150 12.4019 149.792 11.8179 149.422 11.3873C149.052 10.9568 148.55 10.7149 148.026 10.7149C147.503 10.7149 147.001 10.9568 146.631 11.3873C146.261 11.8179 146.053 12.4019 146.053 13.0109C146.053 13.6198 146.261 14.2038 146.631 14.6344C147.001 15.065 147.503 15.3069 148.026 15.3069ZM137.5 15.3069C138.023 15.3069 138.525 15.065 138.896 14.6344C139.266 14.2038 139.474 13.6198 139.474 13.0109C139.474 12.4019 139.266 11.8179 138.896 11.3873C138.525 10.9568 138.023 10.7149 137.5 10.7149C136.977 10.7149 136.475 10.9568 136.104 11.3873C135.734 11.8179 135.526 12.4019 135.526 13.0109C135.526 13.6198 135.734 14.2038 136.104 14.6344C136.475 15.065 136.977 15.3069 137.5 15.3069ZM32.2368 27.5525C32.7603 27.5525 33.2623 27.3106 33.6324 26.88C34.0026 26.4494 34.2105 25.8654 34.2105 25.2564C34.2105 24.6475 34.0026 24.0635 33.6324 23.6329C33.2623 23.2023 32.7603 22.9604 32.2368 22.9604C31.7134 22.9604 31.2114 23.2023 30.8412 23.6329C30.4711 24.0635 30.2632 24.6475 30.2632 25.2564C30.2632 25.8654 30.4711 26.4494 30.8412 26.88C31.2114 27.3106 31.7134 27.5525 32.2368 27.5525ZM11.1842 27.5525C11.7077 27.5525 12.2097 27.3106 12.5798 26.88C12.95 26.4494 13.1579 25.8654 13.1579 25.2564C13.1579 24.6475 12.95 24.0635 12.5798 23.6329C12.2097 23.2023 11.7077 22.9604 11.1842 22.9604C10.6608 22.9604 10.1587 23.2023 9.7886 23.6329C9.41847 24.0635 9.21053 24.6475 9.21053 25.2564C9.21053 25.8654 9.41847 26.4494 9.7886 26.88C10.1587 27.3106 10.6608 27.5525 11.1842 27.5525ZM32.2368 39.798C32.7603 39.798 33.2623 39.5561 33.6324 39.1255C34.0026 38.6949 34.2105 38.1109 34.2105 37.502C34.2105 36.893 34.0026 36.309 33.6324 35.8784C33.2623 35.4478 32.7603 35.2059 32.2368 35.2059C31.7134 35.2059 31.2114 35.4478 30.8412 35.8784C30.4711 36.309 30.2632 36.893 30.2632 37.502C30.2632 38.1109 30.4711 38.6949 30.8412 39.1255C31.2114 39.5561 31.7134 39.798 32.2368 39.798ZM21.7105 52.0436C22.234 52.0436 22.736 51.8017 23.1061 51.3711C23.4763 50.9405 23.6842 50.3565 23.6842 49.7475C23.6842 49.1386 23.4763 48.5546 23.1061 48.124C22.736 47.6934 22.234 47.4515 21.7105 47.4515C21.1871 47.4515 20.6851 47.6934 20.3149 48.124C19.9448 48.5546 19.7368 49.1386 19.7368 49.7475C19.7368 50.3565 19.9448 50.9405 20.3149 51.3711C20.6851 51.8017 21.1871 52.0436 21.7105 52.0436ZM32.2368 15.3069C32.7603 15.3069 33.2623 15.065 33.6324 14.6344C34.0026 14.2038 34.2105 13.6198 34.2105 13.0109C34.2105 12.4019 34.0026 11.8179 33.6324 11.3873C33.2623 10.9568 32.7603 10.7149 32.2368 10.7149C31.7134 10.7149 31.2114 10.9568 30.8412 11.3873C30.4711 11.8179 30.2632 12.4019 30.2632 13.0109C30.2632 13.6198 30.4711 14.2038 30.8412 14.6344C31.2114 15.065 31.7134 15.3069 32.2368 15.3069ZM32.2368 198.99C32.7603 198.99 33.2623 198.748 33.6324 198.318C34.0026 197.887 34.2105 197.303 34.2105 196.694C34.2105 196.085 34.0026 195.501 33.6324 195.07C33.2623 194.64 32.7603 194.398 32.2368 194.398C31.7134 194.398 31.2114 194.64 30.8412 195.07C30.4711 195.501 30.2632 196.085 30.2632 196.694C30.2632 197.303 30.4711 197.887 30.8412 198.318C31.2114 198.748 31.7134 198.99 32.2368 198.99ZM42.7632 223.481C43.2866 223.481 43.7886 223.239 44.1588 222.809C44.5289 222.378 44.7368 221.794 44.7368 221.185C44.7368 220.576 44.5289 219.992 44.1588 219.562C43.7886 219.131 43.2866 218.889 42.7632 218.889C42.2397 218.889 41.7377 219.131 41.3676 219.562C40.9974 219.992 40.7895 220.576 40.7895 221.185C40.7895 221.794 40.9974 222.378 41.3676 222.809C41.7377 223.239 42.2397 223.481 42.7632 223.481ZM32.2368 174.499C32.7603 174.499 33.2623 174.257 33.6324 173.827C34.0026 173.396 34.2105 172.812 34.2105 172.203C34.2105 171.594 34.0026 171.01 33.6324 170.579C33.2623 170.149 32.7603 169.907 32.2368 169.907C31.7134 169.907 31.2114 170.149 30.8412 170.579C30.4711 171.01 30.2632 171.594 30.2632 172.203C30.2632 172.812 30.4711 173.396 30.8412 173.827C31.2114 174.257 31.7134 174.499 32.2368 174.499ZM32.2368 186.745C32.7603 186.745 33.2623 186.503 33.6324 186.072C34.0026 185.641 34.2105 185.057 34.2105 184.449C34.2105 183.84 34.0026 183.256 33.6324 182.825C33.2623 182.394 32.7603 182.152 32.2368 182.152C31.7134 182.152 31.2114 182.394 30.8412 182.825C30.4711 183.256 30.2632 183.84 30.2632 184.449C30.2632 185.057 30.4711 185.641 30.8412 186.072C31.2114 186.503 31.7134 186.745 32.2368 186.745ZM21.7105 162.253C22.234 162.253 22.736 162.012 23.1061 161.581C23.4763 161.15 23.6842 160.566 23.6842 159.957C23.6842 159.348 23.4763 158.764 23.1061 158.334C22.736 157.903 22.234 157.661 21.7105 157.661C21.1871 157.661 20.6851 157.903 20.3149 158.334C19.9448 158.764 19.7368 159.348 19.7368 159.957C19.7368 160.566 19.9448 161.15 20.3149 161.581C20.6851 162.012 21.1871 162.253 21.7105 162.253ZM74.3421 27.5525C74.8656 27.5525 75.3676 27.3106 75.7377 26.88C76.1078 26.4494 76.3158 25.8654 76.3158 25.2564C76.3158 24.6475 76.1078 24.0635 75.7377 23.6329C75.3676 23.2023 74.8656 22.9604 74.3421 22.9604C73.8186 22.9604 73.3166 23.2023 72.9465 23.6329C72.5764 24.0635 72.3684 24.6475 72.3684 25.2564C72.3684 25.8654 72.5764 26.4494 72.9465 26.88C73.3166 27.3106 73.8186 27.5525 74.3421 27.5525ZM84.8684 27.5525C85.3919 27.5525 85.8939 27.3106 86.264 26.88C86.6342 26.4494 86.8421 25.8654 86.8421 25.2564C86.8421 24.6475 86.6342 24.0635 86.264 23.6329C85.8939 23.2023 85.3919 22.9604 84.8684 22.9604C84.345 22.9604 83.8429 23.2023 83.4728 23.6329C83.1027 24.0635 82.8947 24.6475 82.8947 25.2564C82.8947 25.8654 83.1027 26.4494 83.4728 26.88C83.8429 27.3106 84.345 27.5525 84.8684 27.5525ZM74.3421 15.3069C74.8656 15.3069 75.3676 15.065 75.7377 14.6344C76.1078 14.2038 76.3158 13.6198 76.3158 13.0109C76.3158 12.4019 76.1078 11.8179 75.7377 11.3873C75.3676 10.9568 74.8656 10.7149 74.3421 10.7149C73.8186 10.7149 73.3166 10.9568 72.9465 11.3873C72.5764 11.8179 72.3684 12.4019 72.3684 13.0109C72.3684 13.6198 72.5764 14.2038 72.9465 14.6344C73.3166 15.065 73.8186 15.3069 74.3421 15.3069ZM95.3947 52.0436C95.9182 52.0436 96.4202 51.8017 96.7903 51.3711C97.1605 50.9405 97.3684 50.3565 97.3684 49.7475C97.3684 49.1386 97.1605 48.5546 96.7903 48.124C96.4202 47.6934 95.9182 47.4515 95.3947 47.4515C94.8713 47.4515 94.3693 47.6934 93.9991 48.124C93.629 48.5546 93.4211 49.1386 93.4211 49.7475C93.4211 50.3565 93.629 50.9405 93.9991 51.3711C94.3693 51.8017 94.8713 52.0436 95.3947 52.0436ZM105.921 39.798C106.445 39.798 106.947 39.5561 107.317 39.1255C107.687 38.6949 107.895 38.1109 107.895 37.502C107.895 36.893 107.687 36.309 107.317 35.8784C106.947 35.4478 106.445 35.2059 105.921 35.2059C105.398 35.2059 104.896 35.4478 104.525 35.8784C104.155 36.309 103.947 36.893 103.947 37.502C103.947 38.1109 104.155 38.6949 104.525 39.1255C104.896 39.5561 105.398 39.798 105.921 39.798ZM105.921 15.3069C106.445 15.3069 106.947 15.065 107.317 14.6344C107.687 14.2038 107.895 13.6198 107.895 13.0109C107.895 12.4019 107.687 11.8179 107.317 11.3873C106.947 10.9568 106.445 10.7149 105.921 10.7149C105.398 10.7149 104.896 10.9568 104.525 11.3873C104.155 11.8179 103.947 12.4019 103.947 13.0109C103.947 13.6198 104.155 14.2038 104.525 14.6344C104.896 15.065 105.398 15.3069 105.921 15.3069ZM179.605 150.008C180.129 150.008 180.631 149.766 181.001 149.335C181.371 148.905 181.579 148.321 181.579 147.712C181.579 147.103 181.371 146.519 181.001 146.088C180.631 145.658 180.129 145.416 179.605 145.416C179.082 145.416 178.58 145.658 178.21 146.088C177.84 146.519 177.632 147.103 177.632 147.712C177.632 148.321 177.84 148.905 178.21 149.335C178.58 149.766 179.082 150.008 179.605 150.008ZM169.079 162.253C169.602 162.253 170.104 162.012 170.475 161.581C170.845 161.15 171.053 160.566 171.053 159.957C171.053 159.348 170.845 158.764 170.475 158.334C170.104 157.903 169.602 157.661 169.079 157.661C168.555 157.661 168.053 157.903 167.683 158.334C167.313 158.764 167.105 159.348 167.105 159.957C167.105 160.566 167.313 161.15 167.683 161.581C168.053 162.012 168.555 162.253 169.079 162.253ZM169.079 174.499C169.602 174.499 170.104 174.257 170.475 173.827C170.845 173.396 171.053 172.812 171.053 172.203C171.053 171.594 170.845 171.01 170.475 170.579C170.104 170.149 169.602 169.907 169.079 169.907C168.555 169.907 168.053 170.149 167.683 170.579C167.313 171.01 167.105 171.594 167.105 172.203C167.105 172.812 167.313 173.396 167.683 173.827C168.053 174.257 168.555 174.499 169.079 174.499ZM169.079 186.745C169.602 186.745 170.104 186.503 170.475 186.072C170.845 185.641 171.053 185.057 171.053 184.449C171.053 183.84 170.845 183.256 170.475 182.825C170.104 182.394 169.602 182.152 169.079 182.152C168.555 182.152 168.053 182.394 167.683 182.825C167.313 183.256 167.105 183.84 167.105 184.449C167.105 185.057 167.313 185.641 167.683 186.072C168.053 186.503 168.555 186.745 169.079 186.745ZM11.1842 137.762C11.7077 137.762 12.2097 137.52 12.5798 137.09C12.95 136.659 13.1579 136.075 13.1579 135.466C13.1579 134.857 12.95 134.273 12.5798 133.843C12.2097 133.412 11.7077 133.17 11.1842 133.17C10.6608 133.17 10.1587 133.412 9.7886 133.843C9.41847 134.273 9.21053 134.857 9.21053 135.466C9.21053 136.075 9.41847 136.659 9.7886 137.09C10.1587 137.52 10.6608 137.762 11.1842 137.762ZM11.1842 150.008C11.7077 150.008 12.2097 149.766 12.5798 149.335C12.95 148.905 13.1579 148.321 13.1579 147.712C13.1579 147.103 12.95 146.519 12.5798 146.088C12.2097 145.658 11.7077 145.416 11.1842 145.416C10.6608 145.416 10.1587 145.658 9.7886 146.088C9.41847 146.519 9.21053 147.103 9.21053 147.712C9.21053 148.321 9.41847 148.905 9.7886 149.335C10.1587 149.766 10.6608 150.008 11.1842 150.008ZM11.1842 125.517C11.7077 125.517 12.2097 125.275 12.5798 124.844C12.95 124.414 13.1579 123.83 13.1579 123.221C13.1579 122.612 12.95 122.028 12.5798 121.597C12.2097 121.167 11.7077 120.925 11.1842 120.925C10.6608 120.925 10.1587 121.167 9.7886 121.597C9.41847 122.028 9.21053 122.612 9.21053 123.221C9.21053 123.83 9.41847 124.414 9.7886 124.844C10.1587 125.275 10.6608 125.517 11.1842 125.517ZM21.7105 125.517C22.234 125.517 22.736 125.275 23.1061 124.844C23.4763 124.414 23.6842 123.83 23.6842 123.221C23.6842 122.612 23.4763 122.028 23.1061 121.597C22.736 121.167 22.234 120.925 21.7105 120.925C21.1871 120.925 20.6851 121.167 20.3149 121.597C19.9448 122.028 19.7368 122.612 19.7368 123.221C19.7368 123.83 19.9448 124.414 20.3149 124.844C20.6851 125.275 21.1871 125.517 21.7105 125.517ZM11.1842 64.2891C11.7077 64.2891 12.2097 64.0472 12.5798 63.6166C12.95 63.186 13.1579 62.602 13.1579 61.9931C13.1579 61.3841 12.95 60.8001 12.5798 60.3695C12.2097 59.9389 11.7077 59.697 11.1842 59.697C10.6608 59.697 10.1587 59.9389 9.7886 60.3695C9.41847 60.8001 9.21053 61.3841 9.21053 61.9931C9.21053 62.602 9.41847 63.186 9.7886 63.6166C10.1587 64.0472 10.6608 64.2891 11.1842 64.2891ZM32.2368 113.271C32.7603 113.271 33.2623 113.029 33.6324 112.599C34.0026 112.168 34.2105 111.584 34.2105 110.975C34.2105 110.366 34.0026 109.782 33.6324 109.352C33.2623 108.921 32.7603 108.679 32.2368 108.679C31.7134 108.679 31.2114 108.921 30.8412 109.352C30.4711 109.782 30.2632 110.366 30.2632 110.975C30.2632 111.584 30.4711 112.168 30.8412 112.599C31.2114 113.029 31.7134 113.271 32.2368 113.271ZM42.7632 101.026C43.2866 101.026 43.7886 100.784 44.1588 100.353C44.5289 99.9227 44.7368 99.3386 44.7368 98.7297C44.7368 98.1208 44.5289 97.5367 44.1588 97.1061C43.7886 96.6756 43.2866 96.4337 42.7632 96.4337C42.2397 96.4337 41.7377 96.6756 41.3676 97.1061C40.9974 97.5367 40.7895 98.1208 40.7895 98.7297C40.7895 99.3386 40.9974 99.9227 41.3676 100.353C41.7377 100.784 42.2397 101.026 42.7632 101.026Z" fill="#18B2D2" fill-opacity="0.16"/>
</g>
<defs>
<clipPath id="clip0_1_422">
<rect width="200" height="232.665" fill="white"/>
</clipPath>
</defs>
</svg>
