<svg width="11" height="10" viewBox="0 0 11 10" fill="none" xmlns="http://www.w3.org/2000/svg">
<path d="M10.5915 5.08213H9.08991V3.63901H10.5915C10.8171 3.63901 11 3.4563 11 3.23063C11 3.00494 10.8171 2.82211 10.5915 2.82211H9.08991V0.819709C9.08991 0.52741 9.03215 0.312869 8.91829 0.18218C8.81007 0.0578525 8.66779 0 8.47076 0C8.28275 0 8.14583 0.0574535 8.0397 0.181005C7.92717 0.311827 7.87005 0.526768 7.87005 0.819842V2.82236H5.04551L3.84455 1.00504C3.74177 0.84285 3.64513 0.690927 3.55128 0.545099C3.46678 0.413767 3.38437 0.30684 3.30653 0.226999C3.23761 0.156312 3.15908 0.101608 3.06722 0.0595592C2.98056 0.0199935 2.87037 0.000133006 2.74001 0.000133006C2.57375 0.000133006 2.42282 0.0456835 2.2783 0.139267C2.13529 0.231831 2.03643 0.346272 1.97605 0.489152C1.92305 0.624939 1.89501 0.833009 1.89501 1.10159V2.82222H0.408359C0.182778 2.82225 0 3.00507 0 3.23074C0 3.45641 0.182778 3.63912 0.408381 3.63912H1.89504V5.08239H0.408381C0.182778 5.08239 0 5.26517 0 5.49091C0 5.71651 0.182778 5.89915 0.408381 5.89915H1.89504V8.18539C1.89504 8.46904 1.95464 8.68141 2.07269 8.81636C2.18496 8.94503 2.32731 9.00477 2.52062 9.00477C2.70712 9.00477 2.84836 8.94476 2.96548 8.81585C3.08542 8.68379 3.14609 8.47155 3.14609 8.18541V5.89915H5.70197L7.08509 8.02003C7.18127 8.16023 7.28057 8.30174 7.37961 8.44049C7.46896 8.56509 7.56644 8.67487 7.66929 8.76657C7.76192 8.84952 7.86122 8.9103 7.96445 8.94738C8.07071 8.98564 8.19491 9.00503 8.33273 9.00503C8.70678 9.00503 9.08987 8.89052 9.08987 8.04129V5.89915H10.5914C10.8171 5.89915 11 5.71624 11 5.49064C11 5.26504 10.8171 5.08213 10.5915 5.08213ZM7.87002 3.63899V5.0821H6.53917L5.58558 3.63899H7.87002ZM3.14611 1.98079L3.69494 2.82211H3.14611V1.98079ZM3.14611 5.08213V3.63901H4.22784L5.16913 5.08213H3.14611ZM7.87002 7.09639L7.07909 5.89915H7.87002V7.09639Z" fill="#1EB2A6"/>
</svg>
